<svg width="37" height="32" viewBox="0 0 37 32" fill="none" xmlns="http://www.w3.org/2000/svg">
<path d="M18.6684 20.4454H36.1024C36.2572 20.4454 36.4056 20.3839 36.515 20.2745C36.6244 20.1651 36.6859 20.0167 36.6859 19.862V16.0004C36.6859 15.9796 36.6859 15.9596 36.6859 15.9404C36.6823 15.9123 36.6767 15.8844 36.6692 15.8571C36.6696 15.8529 36.6696 15.8487 36.6692 15.8445C36.6618 15.816 36.652 15.7881 36.64 15.7612L36.635 15.7495C36.6227 15.7231 36.6082 15.6977 36.5917 15.6737C36.5755 15.6505 36.5577 15.6285 36.5383 15.6078L36.5283 15.597C36.5087 15.5771 36.4878 15.5585 36.4658 15.5412L36.4525 15.532C36.4291 15.5144 36.4043 15.4988 36.3783 15.4853L28.7744 11.6271L28.7611 11.6213L28.7269 11.6055L28.7044 11.5971L28.6744 11.5871L28.6452 11.5796L28.6194 11.5746L28.5844 11.5688H28.5635H28.5227H9.22251L3.28227 8.87745H21.3256C21.4803 8.87745 21.6287 8.81598 21.7381 8.70657C21.8475 8.59715 21.909 8.44875 21.909 8.29401V4.43664C21.9086 4.41268 21.9069 4.38874 21.904 4.36495V4.35079C21.8955 4.29144 21.8778 4.23378 21.8515 4.17992L21.8465 4.16993C21.8331 4.14454 21.818 4.12003 21.8015 4.09657C21.7987 4.09248 21.7956 4.0886 21.7923 4.08491C21.7755 4.06154 21.7565 4.03977 21.7356 4.0199L21.7281 4.01239C21.7064 3.99218 21.6833 3.97352 21.659 3.95655C21.6322 3.93921 21.6044 3.92361 21.5756 3.90987H21.5706L13.0549 0.0516661C12.9792 0.0174921 12.8971 -0.00011543 12.814 5.69448e-07H0.580103C0.549087 0.000220024 0.518143 0.00299563 0.487587 0.00832321H0.474254C0.445953 0.0137559 0.418094 0.0212795 0.390905 0.0308289L0.378401 0.0358347C0.349414 0.0451159 0.321479 0.0574025 0.295052 0.0725032H0.288383C0.263053 0.0863771 0.239059 0.102566 0.216704 0.120852L0.210869 0.125023C0.188646 0.143232 0.167756 0.163005 0.148358 0.184198L0.137522 0.195857C0.119193 0.217378 0.10248 0.240227 0.0875151 0.264209C0.0844508 0.268178 0.0816679 0.272368 0.0791823 0.276723C0.0637043 0.301979 0.0503202 0.328457 0.0391715 0.3559V0.361741C0.0275012 0.390924 0.0183042 0.421021 0.0116701 0.451743C0.00522207 0.481361 0.00131703 0.511483 1.16819e-07 0.541766C1.16819e-07 0.547601 1.16819e-07 0.553432 1.16819e-07 0.559266C1.16819e-07 0.5651 1.16819e-07 0.569262 1.16819e-07 0.574263V4.43247C8.93001e-05 4.54452 0.0324397 4.65417 0.0931873 4.74832C0.153935 4.84248 0.240509 4.91715 0.342561 4.96341L6.39617 7.7039H0.580103C0.549087 7.70412 0.518143 7.70692 0.487587 7.71224H0.474254C0.446038 7.71804 0.418203 7.72556 0.390905 7.73475L0.378401 7.73974C0.349705 7.74977 0.321837 7.76205 0.295052 7.77642L0.288383 7.78057C0.263234 7.79474 0.239265 7.81092 0.216704 7.82892L0.210869 7.8331C0.188434 7.85136 0.167528 7.87143 0.148358 7.8931L0.137522 7.90478C0.119006 7.92586 0.102281 7.94843 0.0875151 7.97228L0.0791823 7.9848C0.0636628 8.01148 0.0502815 8.03935 0.0391715 8.06814V8.07396C0.0275012 8.10315 0.0183042 8.13326 0.0116701 8.16399C0.00522207 8.1936 0.00131703 8.22373 1.16819e-07 8.25401C1.16819e-07 8.25984 1.16819e-07 8.26567 1.16819e-07 8.27151C1.16819e-07 8.27734 1.16819e-07 8.28067 1.16819e-07 8.28567V12.1439C-7.08641e-05 12.2561 0.0322064 12.3659 0.0929635 12.4602C0.153721 12.5545 0.240379 12.6293 0.342561 12.6757L6.39617 15.417H0.580103C0.549127 15.4173 0.518214 15.4198 0.487587 15.4245H0.474254C0.445864 15.4295 0.417973 15.4371 0.390905 15.447L0.378401 15.452C0.349589 15.4614 0.321692 15.4734 0.295052 15.4878H0.288383C0.263217 15.5023 0.239248 15.5187 0.216704 15.537C0.214451 15.5379 0.212449 15.5393 0.210869 15.5412C0.188646 15.5594 0.167756 15.5791 0.148358 15.6003L0.137522 15.612C0.119193 15.6335 0.10248 15.6564 0.0875151 15.6804C0.0844508 15.6843 0.0816679 15.6885 0.0791823 15.6929C0.0634959 15.7195 0.050108 15.7473 0.0391715 15.7762V15.782C0.0273849 15.8112 0.0181849 15.8413 0.0116701 15.8721C0.00522207 15.9017 0.00131703 15.9318 1.16819e-07 15.9621C1.16819e-07 15.9679 1.16819e-07 15.9737 1.16819e-07 15.9796C1.16819e-07 15.9854 1.16819e-07 15.9896 1.16819e-07 15.9946V19.8528C8.93001e-05 19.9648 0.0324397 20.0745 0.0931873 20.1686C0.153935 20.2628 0.240509 20.3375 0.342561 20.3837L6.39617 23.1359H0.580103C0.549087 23.1361 0.518143 23.1389 0.487587 23.1442H0.474254C0.446038 23.15 0.418203 23.1575 0.390905 23.1667L0.378401 23.1717C0.34956 23.1814 0.321662 23.1937 0.295052 23.2084L0.288383 23.2126C0.263234 23.2267 0.239265 23.2429 0.216704 23.2609H0.210869C0.188434 23.2792 0.167528 23.2993 0.148358 23.3209L0.137522 23.3318C0.119193 23.3533 0.10248 23.3761 0.0875151 23.4001L0.0791823 23.4126C0.0638563 23.4379 0.0504784 23.4644 0.0391715 23.4918V23.4976C0.0275012 23.5268 0.0183042 23.5569 0.0116701 23.5876C0.00527678 23.617 0.00137208 23.6468 1.16819e-07 23.6768C1.16819e-07 23.6827 1.16819e-07 23.6885 1.16819e-07 23.6952C1.16819e-07 23.7018 1.16819e-07 23.7043 1.16819e-07 23.7093V27.5675C-7.08641e-05 27.6797 0.0322064 27.7896 0.0929635 27.8839C0.153721 27.9782 0.240379 28.053 0.342561 28.0993L8.85912 31.9567C8.87328 31.9633 8.88829 31.9692 8.90246 31.9742L8.91496 31.9783C8.93163 31.9833 8.94747 31.9883 8.96414 31.9917H8.97414C8.99121 31.9953 9.00846 31.9981 9.02581 32H9.03415C9.05415 32 9.07499 32 9.09583 32H36.1008C36.2555 32 36.4039 31.9385 36.5133 31.8291C36.6227 31.7197 36.6842 31.5713 36.6842 31.4166V27.5775C36.6838 27.5538 36.6821 27.5302 36.6792 27.5067V27.4917C36.6705 27.4337 36.6528 27.3775 36.6267 27.325L36.6217 27.3141C36.6085 27.2889 36.5934 27.2647 36.5767 27.2416L36.5675 27.2291C36.5505 27.2061 36.5318 27.1844 36.5117 27.1641L36.5033 27.1566C36.4817 27.1367 36.4589 27.118 36.435 27.1008C36.4083 27.0835 36.3805 27.0682 36.3516 27.0549H36.3466L27.8301 23.1976C27.7544 23.1631 27.6723 23.1452 27.5892 23.1451H9.6801V20.4546L18.6684 20.4454ZM9.6801 7.7039V5.01341H20.7421V7.7039H9.6801ZM12.6806 1.1552L18.6209 3.84653H9.22251L3.28227 1.1552H12.6806ZM1.16104 1.47693L8.51072 4.80587V7.38302L1.16104 4.04908V1.47693ZM11.6905 15.417H9.6801V12.7256H28.3593L33.6628 15.417H11.6905ZM1.16354 9.18918L8.51322 12.5181V15.0952L1.16354 11.7663V9.18918ZM9.09666 16.5839H35.5182V19.2752H9.22251L3.28227 16.5839H9.09666ZM1.16354 16.9048L8.51322 20.2387V22.8158L1.16354 19.4819V16.9048ZM1.16354 24.6212L8.51322 27.9501V30.5272L1.16354 27.1983V24.6212ZM9.6801 30.849V28.161H35.5182V30.8523L9.6801 30.849ZM27.46 24.2994L33.4011 26.9941H9.22251L3.28227 24.3028H27.46V24.2994Z" fill="#1E1E1E"/>
</svg>
